<svg xmlns="http://www.w3.org/2000/svg" viewBox="0 0 284.67 285.35"><defs><style>.cls-1{fill:#222;}</style></defs><g id="Capa_2" data-name="Capa 2"><g id="Capa_2-2" data-name="Capa 2"><path class="cls-1" d="M189.38,197.32v3.89q-14.92,11.29-35.76,11.3t-33.56-13.37q-11.72-12.31-12.63-30.27H89.38l.26-1.56a21.4,21.4,0,0,0,5.91-.64,11.23,11.23,0,0,0,4.67-3.44,30.29,30.29,0,0,0,4.87-8.12q2.34-5.31,5.58-14.93l11.55-33.36q6.11-17.65,6.11-21.42t-1.82-4.86c-1.22-.74-3.55-1.11-7-1.11L119.24,78h21.42l23,62.18q5.85,15.45,7.86,19.61t3.83,5.32a14.21,14.21,0,0,0,8.18,2.2l.25,1.56H151.3l.26-1.56a21.85,21.85,0,0,0,6.95-.77c1.33-.52,2-1.86,2-4s-2.3-9.51-6.88-22.07l-1-3.11L133.39,85l-18.31,52.32-.62,1.87a45.76,45.76,0,0,1,5.15-6.72l.65-.7A40.36,40.36,0,0,1,143,120l1.14,3.1a27.68,27.68,0,0,0-16.78,11.1q-8.68,12-8.7,31.35c0,.57,0,1.15,0,1.72s0,1.09.06,1.63q.74,17,9.14,27.93,9.22,11.94,25.83,11.94,12,0,19.93-2.92A65.93,65.93,0,0,0,189.38,197.32Z"/><path class="cls-1" d="M186.4,127.09v16.62l-1.43-.26q-3.24-11.69-11.23-16.49a34.28,34.28,0,0,0-13.35-4.33l-1.17-3.15a74.67,74.67,0,0,1,12.64,2.29Q181.46,124.37,186.4,127.09Z"/><path d="M94.21,18.39a.46.46,0,0,1-.65-.34L90.61,9a.45.45,0,0,1,.32-.65l2.75-.9a5.33,5.33,0,0,1,4.12.07,5.28,5.28,0,0,1,2.52,3.32,5.27,5.27,0,0,1-.08,4.17A5.3,5.3,0,0,1,97,17.49Zm.13-.9,2.3-.74c2.75-.9,3.67-2.77,2.74-5.62s-2.76-3.8-5.52-2.9L91.57,9Z"/><path d="M108.19,14.43a4.71,4.71,0,0,1-2.59-.06,4.43,4.43,0,0,1-2-1.45,6.59,6.59,0,0,1-1.22-2.67,6.55,6.55,0,0,1-.11-2.93,4.16,4.16,0,0,1,1.16-2.2,4.73,4.73,0,0,1,2.3-1.22,4.69,4.69,0,0,1,2.61.06,4.29,4.29,0,0,1,2,1.43,6.49,6.49,0,0,1,1.22,2.66,6.64,6.64,0,0,1,.11,2.95,4.32,4.32,0,0,1-1.17,2.2A4.61,4.61,0,0,1,108.19,14.43Zm-.19-.82a3.39,3.39,0,0,0,2.42-1.81,5.17,5.17,0,0,0,.19-3.51,5.19,5.19,0,0,0-1.74-3,3.39,3.39,0,0,0-3-.52,3.41,3.41,0,0,0-2.42,1.81A5.12,5.12,0,0,0,103.3,10,5.16,5.16,0,0,0,105,13.07,3.35,3.35,0,0,0,108,13.61Z"/><path d="M119.27,12.28A4.89,4.89,0,0,1,116.6,12a4.27,4.27,0,0,1-1.92-1.59,6.61,6.61,0,0,1-1-2.77,6.62,6.62,0,0,1,.13-2.94,4.31,4.31,0,0,1,1.35-2.1,4.84,4.84,0,0,1,2.46-1,5.86,5.86,0,0,1,1.87,0,4.48,4.48,0,0,1,1.58.6.49.49,0,0,1,.29.42.41.41,0,0,1-.18.38.44.44,0,0,1-.49,0,4.19,4.19,0,0,0-2.92-.53,3.49,3.49,0,0,0-2.64,1.62,5,5,0,0,0-.47,3.46,5.07,5.07,0,0,0,1.5,3.18,3.54,3.54,0,0,0,3,.74A4.21,4.21,0,0,0,121.79,10a.43.43,0,0,1,.45-.17.46.46,0,0,1,.17.76A4.87,4.87,0,0,1,119.27,12.28Z"/><path d="M127.59,11.27c-.3,0-.47-.12-.5-.44l-.81-9.32-3.57.31c-.3,0-.46-.1-.49-.38s.12-.42.42-.44l8.08-.71c.29,0,.45.1.47.37a.39.39,0,0,1-.4.46l-3.58.31.81,9.32A.43.43,0,0,1,127.59,11.27Z"/><path d="M136.85,10.81a4.58,4.58,0,0,1-2.52-.61,4.33,4.33,0,0,1-1.67-1.84A6.67,6.67,0,0,1,132,5.49a6.79,6.79,0,0,1,.51-2.89,4.28,4.28,0,0,1,1.6-1.9,4.76,4.76,0,0,1,2.51-.7,4.63,4.63,0,0,1,2.54.61,4.31,4.31,0,0,1,1.67,1.83,6.56,6.56,0,0,1,.63,2.86A6.66,6.66,0,0,1,141,8.2a4.33,4.33,0,0,1-1.61,1.91A4.65,4.65,0,0,1,136.85,10.81Zm0-.84a3.37,3.37,0,0,0,2.75-1.25,5.22,5.22,0,0,0,.93-3.39A5.17,5.17,0,0,0,139.47,2a3.82,3.82,0,0,0-5.55.11A5.21,5.21,0,0,0,133,5.47a5.21,5.21,0,0,0,1.05,3.35A3.35,3.35,0,0,0,136.84,10Z"/><path d="M144.2,10.81q-.45,0-.42-.51l.56-9.68a.43.43,0,0,1,.5-.46l3.51.21a3.75,3.75,0,0,1,2.54.93,2.75,2.75,0,0,1,.76,2.27,2.75,2.75,0,0,1-.75,1.87,3,3,0,0,1-1.88.84,2.36,2.36,0,0,1,1.07,1.24l1.41,3a.56.56,0,0,1,0,.47.34.34,0,0,1-.35.19.59.59,0,0,1-.52-.38l-1.49-3.23a2.27,2.27,0,0,0-.82-1,3,3,0,0,0-1.27-.32l-2.14-.12-.25,4.18C144.67,10.68,144.51,10.83,144.2,10.81ZM145,5.4l3,.17c1.78.11,2.71-.58,2.8-2.06s-.76-2.25-2.54-2.35L145.24,1Z"/><path d="M152.88,11.36a.42.42,0,0,1-.37-.24.56.56,0,0,1,.09-.45l5.46-9a.57.57,0,0,1,.6-.34.59.59,0,0,1,.5.48l2.9,10.16a.51.51,0,0,1,0,.46.35.35,0,0,1-.39.14.53.53,0,0,1-.32-.15,1,1,0,0,1-.17-.34l-.73-2.61-5.62-.74L153.44,11A.59.59,0,0,1,152.88,11.36Zm5.61-8.87-3.22,5.45,4.93.65L158.51,2.5Z"/><path d="M167.2,13.59a.66.66,0,0,1-.53-.44.7.7,0,0,1,.19-.68L173,4.57a1.17,1.17,0,0,1,.48-.4,1,1,0,0,1,.55,0,.89.89,0,0,1,.45.28,1.16,1.16,0,0,1,.26.58l1.78,9.82a.78.78,0,0,1-.14.71.62.62,0,0,1-.64.14.83.83,0,0,1-.47-.29,1.36,1.36,0,0,1-.21-.58l-.37-2.16-5.2-1.27-1.31,1.75a1.48,1.48,0,0,1-.45.43A.76.76,0,0,1,167.2,13.59Zm6.34-7.67-3.25,4.36,4.16,1-.88-5.38Z"/><path d="M178.46,16.49a.65.65,0,0,1-.46-.94l2.92-8.79a.8.8,0,0,1,.36-.48.67.67,0,0,1,.54,0,.78.78,0,0,1,.37.23,1.4,1.4,0,0,1,.2.44L185.48,16l2.33-7a.64.64,0,0,1,.91-.47.63.63,0,0,1,.45.92l-2.94,8.84a.78.78,0,0,1-.33.46.58.58,0,0,1-.5,0,.82.82,0,0,1-.39-.24,1.3,1.3,0,0,1-.23-.46L181.69,9l-2.33,7C179.2,16.48,178.9,16.64,178.46,16.49Z"/><path d="M188.05,19.78a.67.67,0,0,1-.45-.52.73.73,0,0,1,.3-.64l7.31-6.8a1.08,1.08,0,0,1,.54-.31.88.88,0,0,1,.55.06.87.87,0,0,1,.4.34,1.13,1.13,0,0,1,.15.61l.17,10a.81.81,0,0,1-.25.68.6.6,0,0,1-.66,0,.71.71,0,0,1-.41-.36,1.28,1.28,0,0,1-.12-.6V20.06L190.64,18l-1.58,1.51a1.27,1.27,0,0,1-.5.35A.71.71,0,0,1,188.05,19.78Zm7.5-6.54L191.64,17l3.94,1.68V13.25Z"/><path d="M205.61,28.22a5.43,5.43,0,0,1-2.07-1.91,4.33,4.33,0,0,1-.61-2.5,6.27,6.27,0,0,1,.88-2.82,6.34,6.34,0,0,1,1.93-2.22,4.34,4.34,0,0,1,2.44-.78,5.46,5.46,0,0,1,2.72.76,6.43,6.43,0,0,1,1.37,1,4.44,4.44,0,0,1,.9,1.29.81.81,0,0,1,.09.63.7.7,0,0,1-.34.41.65.65,0,0,1-.51.07.7.7,0,0,1-.45-.42,3.28,3.28,0,0,0-.69-1,4.09,4.09,0,0,0-1-.77,3.23,3.23,0,0,0-2.79-.36,4.47,4.47,0,0,0-2.24,2.17,4.47,4.47,0,0,0-.67,3.05,3.26,3.26,0,0,0,1.76,2.2,4.64,4.64,0,0,0,1.2.46,3.9,3.9,0,0,0,1.28.06.78.78,0,0,1,.58.16.63.63,0,0,1,.2.45.74.74,0,0,1-.17.48.72.72,0,0,1-.51.26,4.57,4.57,0,0,1-1.64-.06A5.73,5.73,0,0,1,205.61,28.22Z"/><path d="M210.79,31.24a.69.69,0,0,1-.21-1.09l5-7.59a.71.71,0,0,1,1.1-.23l3,2a3.87,3.87,0,0,1,1.75,2.13,2.89,2.89,0,0,1-.48,2.43,3,3,0,0,1-1.6,1.27,3.13,3.13,0,0,1-2-.14,2.21,2.21,0,0,1,.38,1.63l-.24,2.72a.85.85,0,0,1-.33.66.6.6,0,0,1-.7-.06,1,1,0,0,1-.37-.41A1.1,1.1,0,0,1,216,34l.29-3.3a1.82,1.82,0,0,0-.17-1.06,2.51,2.51,0,0,0-.77-.75l-1.42-.93-2,3.06A.7.7,0,0,1,210.79,31.24ZM214.55,27l2.14,1.41c1.28.85,2.28.75,3-.31s.39-2-.89-2.85l-2.14-1.42Z"/><path d="M219,36.89a.69.69,0,0,1-.15-1.1l5.45-7.41a.78.78,0,1,1,1.25.93l-5.45,7.4A.69.69,0,0,1,219,36.89Z"/><path d="M224.27,41a8.57,8.57,0,0,1-1.39-1.44,5.15,5.15,0,0,1-.83-1.61.81.81,0,0,1,0-.58.76.76,0,0,1,.37-.36.59.59,0,0,1,.47,0,.58.58,0,0,1,.34.42,5,5,0,0,0,.71,1.4A6,6,0,0,0,225.11,40a3.11,3.11,0,0,0,1.74.84,1.43,1.43,0,0,0,1.23-.54,1.17,1.17,0,0,0,.26-1,3.42,3.42,0,0,0-.77-1.35l-1-1.27a4.18,4.18,0,0,1-1-2.11,2.49,2.49,0,0,1,.63-1.88,2.82,2.82,0,0,1,1.45-1,3.21,3.21,0,0,1,1.79,0,5.3,5.3,0,0,1,1.86,1,6.06,6.06,0,0,1,1.2,1.29,4.58,4.58,0,0,1,.67,1.5.66.66,0,0,1,0,.52.74.74,0,0,1-.36.32.61.61,0,0,1-.46,0,.66.66,0,0,1-.36-.44,4.44,4.44,0,0,0-.57-1.2,5.28,5.28,0,0,0-.93-1,2.82,2.82,0,0,0-1.68-.73,1.57,1.57,0,0,0-1.34.61,1.33,1.33,0,0,0-.32,1,2.8,2.8,0,0,0,.69,1.3l1,1.26a4.81,4.81,0,0,1,1.13,2.16,2.24,2.24,0,0,1-.55,1.83,2.66,2.66,0,0,1-1.4.94,3.2,3.2,0,0,1-1.76,0A5.56,5.56,0,0,1,224.27,41Z"/><path d="M230.89,46.71a.7.7,0,0,1,0-1.12l5.84-6.28-2.33-2.17a.59.59,0,0,1,0-.94.58.58,0,0,1,.93,0L241,41.57a.59.59,0,0,1,.07.94.6.6,0,0,1-1,0l-2.33-2.16L232,46.64A.69.69,0,0,1,230.89,46.71Z"/><path d="M235.5,51.2a.69.69,0,0,1,0-1.11l6.57-6.43a.78.78,0,1,1,1.1,1.11l-6.58,6.44A.69.69,0,0,1,235.5,51.2Z"/><path d="M238.19,54a.65.65,0,0,1,.08-1l7-6.1a.88.88,0,0,1,.56-.24.7.7,0,0,1,.49.24.91.91,0,0,1,.2.39,1.29,1.29,0,0,1,0,.48l-1.93,9.4L250,52.24a.65.65,0,0,1,1,.06.63.63,0,0,1-.08,1l-7,6.14a.83.83,0,0,1-.53.23.57.57,0,0,1-.44-.22.79.79,0,0,1-.22-.41,1.5,1.5,0,0,1,0-.5l1.94-9.42L239.22,54A.64.64,0,0,1,238.19,54Z"/><path d="M244.79,61.63a.66.66,0,0,1-.13-.68.71.71,0,0,1,.58-.4L255,58.37a1.08,1.08,0,0,1,.62,0,.89.89,0,0,1,.44.33.86.86,0,0,1,.18.49,1.28,1.28,0,0,1-.18.61l-4.89,8.7a.81.81,0,0,1-.56.46.6.6,0,0,1-.58-.3.8.8,0,0,1-.18-.52,1.39,1.39,0,0,1,.2-.58l1.09-1.9-3.19-4.3-2.12.51a1.37,1.37,0,0,1-.61.05A.74.74,0,0,1,244.79,61.63Zm9.78-1.87-5.29,1.3,2.55,3.43,2.75-4.7Z"/><path d="M253.73,74.31a.64.64,0,0,1,.28-1l8.07-4.66a.65.65,0,0,1,1,.26.79.79,0,0,1,.13.48,1.21,1.21,0,0,1-.17.48l-4.14,6.64,7.82-.25a1.34,1.34,0,0,1,.5.08.82.82,0,0,1,.34.35.63.63,0,0,1-.29,1l-8.07,4.65a.63.63,0,0,1-1-.23.64.64,0,0,1,.28-1l6.16-3.55-6.6.17a1,1,0,0,1-.41,0,.76.76,0,0,1-.38-.68,1.2,1.2,0,0,1,.15-.39L260.86,71l-6.15,3.55A.63.63,0,0,1,253.73,74.31Z"/><path d="M261.47,88.86a5,5,0,0,1-.5-2.66,4.52,4.52,0,0,1,1-2.35,7.11,7.11,0,0,1,5.22-2.42,4.51,4.51,0,0,1,2.42.77,5.55,5.55,0,0,1,2.2,4.76,4.36,4.36,0,0,1-1,2.35,6.35,6.35,0,0,1-2.35,1.76,6.45,6.45,0,0,1-2.87.66,4.44,4.44,0,0,1-2.45-.77A5.05,5.05,0,0,1,261.47,88.86Zm1.23-.56a3,3,0,0,0,2,1.77,5.61,5.61,0,0,0,5.45-2.51,3,3,0,0,0-.06-2.68,3,3,0,0,0-2-1.78,4.55,4.55,0,0,0-3.09.46,4.61,4.61,0,0,0-2.36,2.06A3,3,0,0,0,262.7,88.3Z"/><path d="M264.62,95.84a.71.71,0,0,1,.47-1l8.46-3.19a.78.78,0,1,1,.55,1.46l-8,3,1.64,4.35a.6.6,0,0,1-.37.88.61.61,0,0,1-.88-.41Z"/><path d="M267.27,103.54a.69.69,0,0,1,.51-1l8.74-2.85a.78.78,0,1,1,.49,1.48L268.26,104A.69.69,0,0,1,267.27,103.54Z"/><path d="M268.44,107.16a.66.66,0,0,1,.54-.91l8.94-2.37a.79.79,0,0,1,.61,0,.65.65,0,0,1,.32.43.7.7,0,0,1,0,.43,1.18,1.18,0,0,1-.25.41l-5.9,7.58,7.11-1.89a.72.72,0,1,1,.37,1.39l-9,2.39a.78.78,0,0,1-.57,0,.58.58,0,0,1-.3-.39.82.82,0,0,1,0-.46,1.51,1.51,0,0,1,.26-.44l5.92-7.58-7.14,1.89A.64.64,0,0,1,268.44,107.16Z"/><path d="M271,117a.66.66,0,0,1,.18-.67.74.74,0,0,1,.7-.1l9.7,2.38a1.28,1.28,0,0,1,.56.28,1,1,0,0,1,.25.49.89.89,0,0,1-.07.53,1.16,1.16,0,0,1-.43.46L273.6,126a.78.78,0,0,1-.7.16.6.6,0,0,1-.39-.53.82.82,0,0,1,.07-.55,1.5,1.5,0,0,1,.44-.43l1.82-1.21-.94-5.27-2.13-.48a1.39,1.39,0,0,1-.57-.24A.64.64,0,0,1,271,117Zm9.58,2.68-5.31-1.2.76,4.21,4.56-3Z"/><path d="M276.88,131.32a.39.39,0,0,1,.09-.3.39.39,0,0,1,.69.23l.3,3.46a.39.39,0,0,1-.08.28.4.4,0,0,1-.27.14.38.38,0,0,1-.29-.09.39.39,0,0,1-.13-.27Z"/><path d="M273.86,145.86a5,5,0,0,1,.61-2.61,4.23,4.23,0,0,1,1.84-1.68,7.47,7.47,0,0,1,5.77-.1,4.28,4.28,0,0,1,1.9,1.63,4.9,4.9,0,0,1,.69,2.58,5.56,5.56,0,0,1-.26,1.85,4.46,4.46,0,0,1-.81,1.49.51.51,0,0,1-.45.23.43.43,0,0,1-.36-.24.44.44,0,0,1,.1-.48,4.14,4.14,0,0,0,.93-2.82,3.55,3.55,0,0,0-1.24-2.84,5.12,5.12,0,0,0-3.37-.94,5.17,5.17,0,0,0-3.35,1,3.54,3.54,0,0,0-1.15,2.88,4.24,4.24,0,0,0,1,2.8c.14.18.18.34.11.47a.44.44,0,0,1-.34.25.46.46,0,0,1-.44-.18A4.85,4.85,0,0,1,273.86,145.86Z"/><path d="M273.72,151.79c0-.3.18-.44.5-.42l9.79.47c.32,0,.47.17.45.47s-.18.45-.5.44l-9.78-.47A.42.42,0,0,1,273.72,151.79Z"/><path d="M273.54,155.31c0-.3.21-.43.52-.4l9.66.94a.42.42,0,0,1,.44.51l-.34,3.51a3.88,3.88,0,0,1-1,2.5,3.2,3.2,0,0,1-4.15-.16,3,3,0,0,1-.76-1.91,2.3,2.3,0,0,1-1.27,1l-3.1,1.3a.55.55,0,0,1-.47,0,.31.31,0,0,1-.17-.35.58.58,0,0,1,.39-.51l3.29-1.37a2.18,2.18,0,0,0,1-.77,2.86,2.86,0,0,0,.36-1.26l.21-2.14-4.16-.4A.42.42,0,0,1,273.54,155.31Zm5.38,1-.29,2.94c-.17,1.77.48,2.73,1.95,2.87s2.28-.67,2.46-2.44l.28-2.94Z"/><path d="M271.84,168.54a4,4,0,0,1,1.6-2.84,4.33,4.33,0,0,1,3.29-.49l6,1a.4.4,0,0,1,.38.52.4.4,0,0,1-.53.38l-5.91-1c-2.29-.4-3.62.46-4,2.56s.59,3.37,2.87,3.77l5.91,1a.41.41,0,0,1,.38.54.4.4,0,0,1-.53.36l-6-1a4.34,4.34,0,0,1-2.93-1.57A4.12,4.12,0,0,1,271.84,168.54Z"/><path d="M269.44,179.55a4.85,4.85,0,0,1,2.33-3.33A5.65,5.65,0,0,1,276,176a6.65,6.65,0,0,1,2.64,1.28,4.2,4.2,0,0,1,1.39,2.08,5,5,0,0,1,0,2.71,6.58,6.58,0,0,1-.75,1.76,4.23,4.23,0,0,1-1.26,1.3.42.42,0,0,1-.44,0,.49.49,0,0,1-.29-.31.37.37,0,0,1,.17-.4,3.7,3.7,0,0,0,1.11-1.12,5.23,5.23,0,0,0,.63-1.51,3.55,3.55,0,0,0-.43-3.09,5.08,5.08,0,0,0-3-1.81,4.94,4.94,0,0,0-3.55.16,4,4,0,0,0-1.91,2.73,6.91,6.91,0,0,0-.19,2.66l3.32.85L274,181c.08-.28.24-.39.5-.32s.33.23.26.51l-.69,2.69a.38.38,0,0,1-.52.3l-3.9-1a.48.48,0,0,1-.41-.36,7.62,7.62,0,0,1,0-1.55A9.36,9.36,0,0,1,269.44,179.55Z"/><path d="M267.68,185.74a.41.41,0,0,1,.59-.29l9.34,3a.41.41,0,0,1,.33.57.42.42,0,0,1-.6.3l-9.34-3A.41.41,0,0,1,267.68,185.74Zm11,3.89a.3.3,0,0,1,0-.32.33.33,0,0,1,.23-.19.28.28,0,0,1,.29.13l1.52,2a.43.43,0,0,1,.1.48.48.48,0,0,1-.34.27.35.35,0,0,1-.38-.21Z"/><path d="M266.91,188.34c.07-.19.17-.29.31-.3a.53.53,0,0,1,.42.18l7.59,7.35a.58.58,0,0,1-.39,1l-10.55.55a.57.57,0,0,1-.45-.11.35.35,0,0,1,0-.41.43.43,0,0,1,.22-.28,1,1,0,0,1,.36-.1l2.71-.12,2-5.31-2-1.87A.56.56,0,0,1,266.91,188.34Zm7.37,7.45-4.58-4.36L268,196.1l6.32-.28Z"/><path d="M259.41,205.93a5,5,0,0,1,1.75-2,4.22,4.22,0,0,1,2.41-.65,7.55,7.55,0,0,1,5.17,2.58,4.31,4.31,0,0,1,.93,2.32,5,5,0,0,1-.58,2.61,5.7,5.7,0,0,1-1.08,1.52,4.25,4.25,0,0,1-1.41.94.51.51,0,0,1-.51,0,.44.44,0,0,1-.21-.37c0-.16.11-.28.31-.38a4.18,4.18,0,0,0,2.13-2.08,3.55,3.55,0,0,0,.21-3.09,6.17,6.17,0,0,0-6-3,3.54,3.54,0,0,0-2.35,2,4.22,4.22,0,0,0-.37,3,.45.45,0,0,1-.12.47.43.43,0,0,1-.41.06.46.46,0,0,1-.31-.36A4.85,4.85,0,0,1,259.41,205.93Z"/><path d="M257.28,210.19q.15-.27.36-.24a.53.53,0,0,1,.37.26l6.17,8.58a.58.58,0,0,1,.08.69.59.59,0,0,1-.64.26l-10.49-1.34a.5.5,0,0,1-.42-.19c-.08-.11-.07-.24,0-.41a.5.5,0,0,1,.27-.23,1.09,1.09,0,0,1,.37,0l2.69.36L259,213l-1.59-2.19C257.2,210.59,257.16,210.38,257.28,210.19Zm5.93,8.65-3.73-5.11L256.93,218l6.27.85Z"/><path d="M251.28,220a.42.42,0,0,1,.65-.09l7.95,5.56a.42.42,0,0,1,.13.66L258,229a3.73,3.73,0,0,1-2.15,1.65,3.43,3.43,0,0,1-3.78-2.64,3.74,3.74,0,0,1,.82-2.59l1.76-2.52-3.23-2.26A.42.42,0,0,1,251.28,220Zm4,3.39-1.72,2.45c-1,1.44-.87,2.59.39,3.48s2.41.61,3.41-.82L259.1,226Z"/><path d="M245.86,227.43a.41.41,0,0,1,.66-.06l7.75,6a.41.41,0,0,1,.1.65.41.41,0,0,1-.66.07l-7.75-6A.42.42,0,0,1,245.86,227.43Z"/><path d="M243.72,230.3a.42.42,0,0,1,.67-.05l7.41,6.24a.42.42,0,0,1,.08.66.42.42,0,0,1-.67,0l-7.14-6-3.33,4a.39.39,0,0,1-.6.08.39.39,0,0,1,0-.62Z"/><path d="M239.34,235.35a.37.37,0,0,1,.41-.15.54.54,0,0,1,.31.33l4.06,9.76a.59.59,0,0,1-.09.69.58.58,0,0,1-.68.11l-9.91-3.68a.54.54,0,0,1-.36-.28c-.06-.13,0-.26.12-.4a.47.47,0,0,1,.31-.16,1,1,0,0,1,.37.05l2.54,1,3.93-4.08-1.06-2.5A.55.55,0,0,1,239.34,235.35Zm3.82,9.77-2.48-5.82-3.45,3.59,5.91,2.25Z"/><path d="M231.32,243.47a.42.42,0,0,1,.66.06l6.46,7.23a.42.42,0,0,1,0,.67l-2.63,2.35a3.73,3.73,0,0,1-2.45,1.14A3.18,3.18,0,0,1,230.4,252a3,3,0,0,1,.73-1.92,2.3,2.3,0,0,1-1.63-.11l-3.15-1.15a.52.52,0,0,1-.35-.31.32.32,0,0,1,.11-.38.58.58,0,0,1,.63-.1l3.34,1.22a2.29,2.29,0,0,0,1.28.12,2.8,2.8,0,0,0,1.12-.68l1.6-1.43-2.79-3.12A.42.42,0,0,1,231.32,243.47Zm3.28,4.37-2.2,2c-1.33,1.19-1.5,2.33-.51,3.44s2.13,1.05,3.46-.14l2.2-2Z"/><path class="cls-1" d="M140.74,284.33a139.74,139.74,0,0,1-52.1-269.4L88.28,14A140.76,140.76,0,1,0,229,254.22l-.68-.76A139.13,139.13,0,0,1,140.74,284.33Z"/></g></g></svg>